REM DIRINDEX 1\2,1\3,1\4,1\5,1\6
REM DIRNAME folder01,folder02,folder03,folder04,folder05,folder06
TITLE ""
FILE "Disc6Track61.mp3" MP3
  TRACK 01 AUDIO
    TITLE "3:cjc030_12207"
    INDEX 01 00:00:00
  TRACK 02 AUDIO
    TITLE "0:"
    INDEX 01 00:01:03
  TRACK 03 AUDIO
    TITLE "4:cjc030_12208"
    INDEX 01 00:01:13
  TRACK 04 AUDIO
    TITLE "0:"
    INDEX 01 00:02:51
  TRACK 05 AUDIO
    TITLE "5:cjc030_12209"
    INDEX 01 00:02:59
  TRACK 06 AUDIO
    TITLE "0:"
    INDEX 01 00:03:70
  TRACK 07 AUDIO
    TITLE "6:cjc030_12210"
    INDEX 01 00:04:07
  TRACK 08 AUDIO
    TITLE "0:"
    INDEX 01 00:09:10
  TRACK 09 AUDIO
    TITLE "3:cjc030_12211"
    INDEX 01 00:09:59
  TRACK 10 AUDIO
    TITLE "0:"
    INDEX 01 00:10:74
  TRACK 11 AUDIO
    TITLE "4:cjc030_12212"
    INDEX 01 00:11:11
  TRACK 12 AUDIO
    TITLE "0:"
    INDEX 01 00:12:22
  TRACK 13 AUDIO
    TITLE "5:cjc030_12213"
    INDEX 01 00:12:34
  TRACK 14 AUDIO
    TITLE "0:"
    INDEX 01 00:13:47
  TRACK 15 AUDIO
    TITLE "3:cjc030_12214"
    INDEX 01 00:14:23
  TRACK 16 AUDIO
    TITLE "0:"
    INDEX 01 00:15:34
  TRACK 17 AUDIO
    TITLE "4:cjc030_12215"
    INDEX 01 00:15:44
  TRACK 18 AUDIO
    TITLE "0:"
    INDEX 01 00:17:39
  TRACK 19 AUDIO
    TITLE "5:cjc030_12216"
    INDEX 01 00:17:47
  TRACK 20 AUDIO
    TITLE "0:"
    INDEX 01 00:18:58
  TRACK 21 AUDIO
    TITLE "6:cjc030_12217"
    INDEX 01 00:18:70
  TRACK 22 AUDIO
    TITLE "0:"
    INDEX 01 00:21:31
  TRACK 23 AUDIO
    TITLE "3:cjc030_12218"
    INDEX 01 00:22:03
  TRACK 24 AUDIO
    TITLE "0:"
    INDEX 01 00:23:24
  TRACK 25 AUDIO
    TITLE "4:cjc030_12219"
    INDEX 01 00:23:34
  TRACK 26 AUDIO
    TITLE "0:"
    INDEX 01 00:26:44
  TRACK 27 AUDIO
    TITLE "5:cjc030_12220"
    INDEX 01 00:26:52
  TRACK 28 AUDIO
    TITLE "0:"
    INDEX 01 00:27:73
  TRACK 29 AUDIO
    TITLE "3:cjc030_12221"
    INDEX 01 00:28:55
  TRACK 30 AUDIO
    TITLE "0:"
    INDEX 01 00:29:64
  TRACK 31 AUDIO
    TITLE "4:cjc030_12222"
    INDEX 01 00:30:01
  TRACK 32 AUDIO
    TITLE "0:"
    INDEX 01 00:32:27
  TRACK 33 AUDIO
    TITLE "5:cjc030_12223"
    INDEX 01 00:32:35
  TRACK 34 AUDIO
    TITLE "0:"
    INDEX 01 00:33:46
  TRACK 35 AUDIO
    TITLE "6:cjc030_12224"
    INDEX 01 00:33:60
  TRACK 36 AUDIO
    TITLE "0:"
    INDEX 01 00:37:46
  TRACK 37 AUDIO
    TITLE "3:cjc030_12225"
    INDEX 01 00:38:18
  TRACK 38 AUDIO
    TITLE "0:"
    INDEX 01 00:39:35
  TRACK 39 AUDIO
    TITLE "4:cjc030_12226"
    INDEX 01 00:39:43
  TRACK 40 AUDIO
    TITLE "0:"
    INDEX 01 00:41:36
  TRACK 41 AUDIO
    TITLE "5:cjc030_12227"
    INDEX 01 00:41:45
  TRACK 42 AUDIO
    TITLE "0:"
    INDEX 01 00:42:61
  TRACK 43 AUDIO
    TITLE "6:cjc030_12228"
    INDEX 01 00:43:01
  TRACK 44 AUDIO
    TITLE "0:"
    INDEX 01 00:48:32
  TRACK 45 AUDIO
    TITLE "3:cjc030_12229"
    INDEX 01 00:49:04
  TRACK 46 AUDIO
    TITLE "0:"
    INDEX 01 00:50:11
  TRACK 47 AUDIO
    TITLE "4:cjc030_12230"
    INDEX 01 00:50:25
  TRACK 48 AUDIO
    TITLE "0:"
    INDEX 01 00:52:65
  TRACK 49 AUDIO
    TITLE "5:cjc030_12231"
    INDEX 01 00:52:73
  TRACK 50 AUDIO
    TITLE "0:"
    INDEX 01 00:54:07
  TRACK 51 AUDIO
    TITLE "6:cjc030_12232"
    INDEX 01 00:54:17
  TRACK 52 AUDIO
    TITLE "0:"
    INDEX 01 00:59:28
  TRACK 53 AUDIO
    TITLE "3:cjc030_12233"
    INDEX 01 01:00:02
  TRACK 54 AUDIO
    TITLE "0:"
    INDEX 01 01:01:19
  TRACK 55 AUDIO
    TITLE "4:cjc030_12234"
    INDEX 01 01:01:29
  TRACK 56 AUDIO
    TITLE "0:"
    INDEX 01 01:02:32
  TRACK 57 AUDIO
    TITLE "5:cjc030_12235"
    INDEX 01 01:02:40
  TRACK 58 AUDIO
    TITLE "0:"
    INDEX 01 01:03:61
  TRACK 59 AUDIO
    TITLE "6:cjc030_12236"
    INDEX 01 01:03:71
  TRACK 60 AUDIO
    TITLE "0:"
    INDEX 01 01:08:17
  TRACK 61 AUDIO
    TITLE "3:cjc030_12237"
    INDEX 01 01:08:64
  TRACK 62 AUDIO
    TITLE "0:"
    INDEX 01 01:09:73
  TRACK 63 AUDIO
    TITLE "4:cjc030_12238"
    INDEX 01 01:10:10
  TRACK 64 AUDIO
    TITLE "0:"
    INDEX 01 01:13:69
  TRACK 65 AUDIO
    TITLE "5:cjc030_12239"
    INDEX 01 01:14:04
  TRACK 66 AUDIO
    TITLE "0:"
    INDEX 01 01:15:13
  TRACK 67 AUDIO
    TITLE "6:cjc030_12240"
    INDEX 01 01:15:27
  TRACK 68 AUDIO
    TITLE "0:"
    INDEX 01 01:19:74
